<?xml version="1.0" standalone="no"?>
<!DOCTYPE svg PUBLIC "-//W3C//DTD SVG 20010904//EN"
 "http://www.w3.org/TR/2001/REC-SVG-20010904/DTD/svg10.dtd">
<svg version="1.0" xmlns="http://www.w3.org/2000/svg"
 width="500.000000pt" height="500.000000pt" viewBox="0 0 500.000000 500.000000"
 preserveAspectRatio="xMidYMid meet">

<g transform="translate(0.000000,500.000000) scale(0.1,-0.1)"
fill="#000000" stroke="none">
<path d="M2265 4045 c-52 -51 -16 -145 55 -145 44 0 80 39 80 85 0 46 -36 85
-80 85 -19 0 -40 -9 -55 -25z"/>
<path d="M780 3702 c-32 -26 -39 -82 -40 -322 -1 -113 -5 -268 -10 -345 -6
-77 -13 -219 -16 -315 -6 -157 -4 -186 16 -280 40 -191 77 -287 176 -467 87
-158 387 -476 563 -598 39 -27 98 -68 129 -91 31 -22 108 -75 171 -118 62 -42
123 -84 135 -92 114 -80 239 -158 381 -236 213 -118 295 -157 415 -198 52 -18
128 -46 169 -62 139 -55 246 -89 401 -128 191 -47 290 -58 342 -36 67 28 87
89 48 139 -20 25 -25 26 -113 25 -77 0 -118 6 -252 41 -158 41 -189 51 -355
116 -47 19 -127 47 -177 64 -155 51 -415 188 -638 335 -293 193 -542 365 -620
427 -117 93 -396 394 -438 474 -109 207 -146 303 -173 450 -17 95 -17 161 6
625 5 107 9 277 10 378 0 181 0 183 -25 207 -29 30 -73 33 -105 7z"/>
<path d="M3995 2295 c-52 -51 -15 -135 60 -135 46 0 85 36 85 80 0 44 -39 80
-85 80 -25 0 -44 -8 -60 -25z"/>
</g>
</svg>